<svg xmlns="http://www.w3.org/2000/svg" xmlns:xlink="http://www.w3.org/1999/xlink" width="134" zoomAndPan="magnify" viewBox="0 0 100.5 46.499999" height="62" preserveAspectRatio="xMidYMid meet" version="1.0"><defs><g/><clipPath id="157539910e"><path d="M 0.289062 0 L 43 0 L 43 46 L 0.289062 46 Z M 0.289062 0 " clip-rule="nonzero"/></clipPath><clipPath id="7e11c857ba"><path d="M 0.289062 0 L 43.28125 0 L 43.28125 46 L 0.289062 46 Z M 0.289062 0 " clip-rule="nonzero"/></clipPath><clipPath id="d444ae491d"><path d="M 6 28 L 20 28 L 20 38.90625 L 6 38.90625 Z M 6 28 " clip-rule="nonzero"/></clipPath><clipPath id="698c0e4be8"><path d="M 3.480469 7.195312 L 40.027344 7.195312 L 40.027344 38.90625 L 3.480469 38.90625 Z M 3.480469 7.195312 " clip-rule="nonzero"/></clipPath></defs><g fill="#000000" fill-opacity="1"><g transform="translate(48.59795, 24.19087)"><g><path d="M 4.015625 0.09375 C 3.359375 0.09375 2.769531 -0.0078125 2.25 -0.21875 C 1.738281 -0.4375 1.328125 -0.753906 1.015625 -1.171875 C 0.710938 -1.585938 0.550781 -2.085938 0.53125 -2.671875 L 2.84375 -2.671875 C 2.875 -2.335938 2.988281 -2.082031 3.1875 -1.90625 C 3.382812 -1.738281 3.640625 -1.65625 3.953125 -1.65625 C 4.273438 -1.65625 4.53125 -1.726562 4.71875 -1.875 C 4.90625 -2.019531 5 -2.222656 5 -2.484375 C 5 -2.703125 4.921875 -2.882812 4.765625 -3.03125 C 4.617188 -3.175781 4.4375 -3.296875 4.21875 -3.390625 C 4.007812 -3.484375 3.703125 -3.585938 3.296875 -3.703125 C 2.722656 -3.878906 2.253906 -4.054688 1.890625 -4.234375 C 1.523438 -4.421875 1.210938 -4.6875 0.953125 -5.03125 C 0.691406 -5.375 0.5625 -5.828125 0.5625 -6.390625 C 0.5625 -7.222656 0.859375 -7.875 1.453125 -8.34375 C 2.054688 -8.8125 2.84375 -9.046875 3.8125 -9.046875 C 4.789062 -9.046875 5.582031 -8.8125 6.1875 -8.34375 C 6.789062 -7.875 7.113281 -7.21875 7.15625 -6.375 L 4.796875 -6.375 C 4.785156 -6.664062 4.679688 -6.890625 4.484375 -7.046875 C 4.285156 -7.210938 4.035156 -7.296875 3.734375 -7.296875 C 3.472656 -7.296875 3.257812 -7.226562 3.09375 -7.09375 C 2.9375 -6.957031 2.859375 -6.753906 2.859375 -6.484375 C 2.859375 -6.203125 2.992188 -5.976562 3.265625 -5.8125 C 3.535156 -5.65625 3.957031 -5.484375 4.53125 -5.296875 C 5.113281 -5.097656 5.582031 -4.910156 5.9375 -4.734375 C 6.300781 -4.554688 6.613281 -4.296875 6.875 -3.953125 C 7.132812 -3.617188 7.265625 -3.1875 7.265625 -2.65625 C 7.265625 -2.144531 7.132812 -1.679688 6.875 -1.265625 C 6.613281 -0.847656 6.238281 -0.515625 5.75 -0.265625 C 5.257812 -0.0234375 4.679688 0.09375 4.015625 0.09375 Z M 4.015625 0.09375 "/></g></g></g><g fill="#000000" fill-opacity="1"><g transform="translate(56.659709, 24.19087)"><g><path d="M 2.953125 -7.171875 L 2.953125 -5.375 L 5.875 -5.375 L 5.875 -3.703125 L 2.953125 -3.703125 L 2.953125 -1.734375 L 6.25 -1.734375 L 6.25 0 L 0.78125 0 L 0.78125 -8.921875 L 6.25 -8.921875 L 6.25 -7.171875 Z M 2.953125 -7.171875 "/></g></g></g><g fill="#000000" fill-opacity="1"><g transform="translate(63.781993, 24.19087)"><g><path d="M 8.765625 0 L 6.59375 0 L 2.953125 -5.5 L 2.953125 0 L 0.78125 0 L 0.78125 -8.921875 L 2.953125 -8.921875 L 6.59375 -3.390625 L 6.59375 -8.921875 L 8.765625 -8.921875 Z M 8.765625 0 "/></g></g></g><g fill="#000000" fill-opacity="1"><g transform="translate(73.58305, 24.19087)"><g><path d="M 2.953125 -1.671875 L 5.8125 -1.671875 L 5.8125 0 L 0.78125 0 L 0.78125 -8.921875 L 2.953125 -8.921875 Z M 2.953125 -1.671875 "/></g></g></g><g fill="#000000" fill-opacity="1"><g transform="translate(79.892816, 24.19087)"><g><path d="M 2.953125 -8.921875 L 2.953125 0 L 0.78125 0 L 0.78125 -8.921875 Z M 2.953125 -8.921875 "/></g></g></g><g fill="#000000" fill-opacity="1"><g transform="translate(83.891984, 24.19087)"><g><path d="M 4.015625 0.09375 C 3.359375 0.09375 2.769531 -0.0078125 2.25 -0.21875 C 1.738281 -0.4375 1.328125 -0.753906 1.015625 -1.171875 C 0.710938 -1.585938 0.550781 -2.085938 0.53125 -2.671875 L 2.84375 -2.671875 C 2.875 -2.335938 2.988281 -2.082031 3.1875 -1.90625 C 3.382812 -1.738281 3.640625 -1.65625 3.953125 -1.65625 C 4.273438 -1.65625 4.53125 -1.726562 4.71875 -1.875 C 4.90625 -2.019531 5 -2.222656 5 -2.484375 C 5 -2.703125 4.921875 -2.882812 4.765625 -3.03125 C 4.617188 -3.175781 4.4375 -3.296875 4.21875 -3.390625 C 4.007812 -3.484375 3.703125 -3.585938 3.296875 -3.703125 C 2.722656 -3.878906 2.253906 -4.054688 1.890625 -4.234375 C 1.523438 -4.421875 1.210938 -4.6875 0.953125 -5.03125 C 0.691406 -5.375 0.5625 -5.828125 0.5625 -6.390625 C 0.5625 -7.222656 0.859375 -7.875 1.453125 -8.34375 C 2.054688 -8.8125 2.84375 -9.046875 3.8125 -9.046875 C 4.789062 -9.046875 5.582031 -8.8125 6.1875 -8.34375 C 6.789062 -7.875 7.113281 -7.21875 7.15625 -6.375 L 4.796875 -6.375 C 4.785156 -6.664062 4.679688 -6.890625 4.484375 -7.046875 C 4.285156 -7.210938 4.035156 -7.296875 3.734375 -7.296875 C 3.472656 -7.296875 3.257812 -7.226562 3.09375 -7.09375 C 2.9375 -6.957031 2.859375 -6.753906 2.859375 -6.484375 C 2.859375 -6.203125 2.992188 -5.976562 3.265625 -5.8125 C 3.535156 -5.65625 3.957031 -5.484375 4.53125 -5.296875 C 5.113281 -5.097656 5.582031 -4.910156 5.9375 -4.734375 C 6.300781 -4.554688 6.613281 -4.296875 6.875 -3.953125 C 7.132812 -3.617188 7.265625 -3.1875 7.265625 -2.65625 C 7.265625 -2.144531 7.132812 -1.679688 6.875 -1.265625 C 6.613281 -0.847656 6.238281 -0.515625 5.75 -0.265625 C 5.257812 -0.0234375 4.679688 0.09375 4.015625 0.09375 Z M 4.015625 0.09375 "/></g></g></g><g fill="#000000" fill-opacity="1"><g transform="translate(53.597932, 32.209062)"><g><path d="M 1.1875 -2.4375 C 1.269531 -2.5625 1.382812 -2.664062 1.53125 -2.75 C 1.6875 -2.832031 1.863281 -2.875 2.0625 -2.875 C 2.289062 -2.875 2.5 -2.8125 2.6875 -2.6875 C 2.875 -2.570312 3.023438 -2.40625 3.140625 -2.1875 C 3.253906 -1.96875 3.3125 -1.710938 3.3125 -1.421875 C 3.3125 -1.128906 3.253906 -0.867188 3.140625 -0.640625 C 3.023438 -0.421875 2.875 -0.25 2.6875 -0.125 C 2.5 -0.0078125 2.289062 0.046875 2.0625 0.046875 C 1.851562 0.046875 1.675781 0.00390625 1.53125 -0.078125 C 1.382812 -0.160156 1.269531 -0.265625 1.1875 -0.390625 L 1.1875 0 L 0.3125 0 L 0.3125 -3.75 L 1.1875 -3.75 Z M 2.421875 -1.421875 C 2.421875 -1.640625 2.359375 -1.8125 2.234375 -1.9375 C 2.117188 -2.0625 1.972656 -2.125 1.796875 -2.125 C 1.617188 -2.125 1.46875 -2.054688 1.34375 -1.921875 C 1.226562 -1.796875 1.171875 -1.628906 1.171875 -1.421875 C 1.171875 -1.203125 1.226562 -1.03125 1.34375 -0.90625 C 1.46875 -0.78125 1.617188 -0.71875 1.796875 -0.71875 C 1.972656 -0.71875 2.117188 -0.78125 2.234375 -0.90625 C 2.359375 -1.03125 2.421875 -1.203125 2.421875 -1.421875 Z M 2.421875 -1.421875 "/></g></g></g><g fill="#000000" fill-opacity="1"><g transform="translate(58.081109, 32.209062)"><g><path d="M 1.1875 -2.359375 C 1.28125 -2.515625 1.40625 -2.632812 1.5625 -2.71875 C 1.71875 -2.8125 1.890625 -2.859375 2.078125 -2.859375 L 2.078125 -1.9375 L 1.828125 -1.9375 C 1.617188 -1.9375 1.457031 -1.890625 1.34375 -1.796875 C 1.238281 -1.710938 1.1875 -1.550781 1.1875 -1.3125 L 1.1875 0 L 0.3125 0 L 0.3125 -2.828125 L 1.1875 -2.828125 Z M 1.1875 -2.359375 "/></g></g></g><g fill="#000000" fill-opacity="1"><g transform="translate(61.290071, 32.209062)"><g><path d="M 0.75 -3.125 C 0.59375 -3.125 0.46875 -3.164062 0.375 -3.25 C 0.28125 -3.34375 0.234375 -3.457031 0.234375 -3.59375 C 0.234375 -3.726562 0.28125 -3.835938 0.375 -3.921875 C 0.46875 -4.015625 0.59375 -4.0625 0.75 -4.0625 C 0.894531 -4.0625 1.015625 -4.015625 1.109375 -3.921875 C 1.210938 -3.835938 1.265625 -3.726562 1.265625 -3.59375 C 1.265625 -3.457031 1.210938 -3.34375 1.109375 -3.25 C 1.015625 -3.164062 0.894531 -3.125 0.75 -3.125 Z M 1.1875 -2.828125 L 1.1875 0 L 0.3125 0 L 0.3125 -2.828125 Z M 1.1875 -2.828125 "/></g></g></g><g fill="#000000" fill-opacity="1"><g transform="translate(63.823852, 32.209062)"><g><path d="M 1.1875 -3.75 L 1.1875 0 L 0.3125 0 L 0.3125 -3.75 Z M 1.1875 -3.75 "/></g></g></g><g fill="#000000" fill-opacity="1"><g transform="translate(66.357633, 32.209062)"><g><path d="M 1.1875 -3.75 L 1.1875 0 L 0.3125 0 L 0.3125 -3.75 Z M 1.1875 -3.75 "/></g></g></g><g fill="#000000" fill-opacity="1"><g transform="translate(68.891414, 32.209062)"><g><path d="M 1.1875 -3.75 L 1.1875 0 L 0.3125 0 L 0.3125 -3.75 Z M 1.1875 -3.75 "/></g></g></g><g fill="#000000" fill-opacity="1"><g transform="translate(71.425195, 32.209062)"><g><path d="M 2.984375 -1.46875 C 2.984375 -1.382812 2.976562 -1.296875 2.96875 -1.203125 L 1 -1.203125 C 1.019531 -1.023438 1.078125 -0.890625 1.171875 -0.796875 C 1.273438 -0.710938 1.398438 -0.671875 1.546875 -0.671875 C 1.765625 -0.671875 1.914062 -0.757812 2 -0.9375 L 2.921875 -0.9375 C 2.867188 -0.75 2.78125 -0.582031 2.65625 -0.4375 C 2.539062 -0.289062 2.390625 -0.171875 2.203125 -0.078125 C 2.015625 0.00390625 1.804688 0.046875 1.578125 0.046875 C 1.296875 0.046875 1.046875 -0.0078125 0.828125 -0.125 C 0.609375 -0.25 0.4375 -0.421875 0.3125 -0.640625 C 0.195312 -0.859375 0.140625 -1.117188 0.140625 -1.421875 C 0.140625 -1.710938 0.195312 -1.96875 0.3125 -2.1875 C 0.4375 -2.40625 0.609375 -2.570312 0.828125 -2.6875 C 1.046875 -2.8125 1.296875 -2.875 1.578125 -2.875 C 1.847656 -2.875 2.085938 -2.816406 2.296875 -2.703125 C 2.515625 -2.585938 2.679688 -2.421875 2.796875 -2.203125 C 2.921875 -1.992188 2.984375 -1.75 2.984375 -1.46875 Z M 2.09375 -1.6875 C 2.09375 -1.84375 2.039062 -1.960938 1.9375 -2.046875 C 1.84375 -2.128906 1.71875 -2.171875 1.5625 -2.171875 C 1.414062 -2.171875 1.289062 -2.128906 1.1875 -2.046875 C 1.09375 -1.960938 1.035156 -1.84375 1.015625 -1.6875 Z M 2.09375 -1.6875 "/></g></g></g><g fill="#000000" fill-opacity="1"><g transform="translate(75.588546, 32.209062)"><g><path d="M 0.140625 -1.421875 C 0.140625 -1.710938 0.191406 -1.96875 0.296875 -2.1875 C 0.410156 -2.40625 0.5625 -2.570312 0.75 -2.6875 C 0.945312 -2.8125 1.160156 -2.875 1.390625 -2.875 C 1.585938 -2.875 1.757812 -2.832031 1.90625 -2.75 C 2.0625 -2.664062 2.179688 -2.5625 2.265625 -2.4375 L 2.265625 -2.828125 L 3.140625 -2.828125 L 3.140625 0 L 2.265625 0 L 2.265625 -0.40625 C 2.179688 -0.269531 2.0625 -0.160156 1.90625 -0.078125 C 1.757812 0.00390625 1.585938 0.046875 1.390625 0.046875 C 1.160156 0.046875 0.945312 -0.0078125 0.75 -0.125 C 0.5625 -0.25 0.410156 -0.421875 0.296875 -0.640625 C 0.191406 -0.867188 0.140625 -1.128906 0.140625 -1.421875 Z M 2.265625 -1.421875 C 2.265625 -1.628906 2.203125 -1.796875 2.078125 -1.921875 C 1.960938 -2.054688 1.816406 -2.125 1.640625 -2.125 C 1.472656 -2.125 1.328125 -2.0625 1.203125 -1.9375 C 1.085938 -1.8125 1.03125 -1.640625 1.03125 -1.421875 C 1.03125 -1.203125 1.085938 -1.03125 1.203125 -0.90625 C 1.328125 -0.78125 1.472656 -0.71875 1.640625 -0.71875 C 1.816406 -0.71875 1.960938 -0.78125 2.078125 -0.90625 C 2.203125 -1.03125 2.265625 -1.203125 2.265625 -1.421875 Z M 2.265625 -1.421875 "/></g></g></g><g fill="#000000" fill-opacity="1"><g transform="translate(80.071724, 32.209062)"><g><path d="M 1.1875 -2.359375 C 1.28125 -2.515625 1.40625 -2.632812 1.5625 -2.71875 C 1.71875 -2.8125 1.890625 -2.859375 2.078125 -2.859375 L 2.078125 -1.9375 L 1.828125 -1.9375 C 1.617188 -1.9375 1.457031 -1.890625 1.34375 -1.796875 C 1.238281 -1.710938 1.1875 -1.550781 1.1875 -1.3125 L 1.1875 0 L 0.3125 0 L 0.3125 -2.828125 L 1.1875 -2.828125 Z M 1.1875 -2.359375 "/></g></g></g><g fill="#000000" fill-opacity="1"><g transform="translate(83.280685, 32.209062)"><g><path d="M 2.046875 -2.859375 C 2.367188 -2.859375 2.628906 -2.75 2.828125 -2.53125 C 3.035156 -2.320312 3.140625 -2.03125 3.140625 -1.65625 L 3.140625 0 L 2.265625 0 L 2.265625 -1.53125 C 2.265625 -1.726562 2.210938 -1.878906 2.109375 -1.984375 C 2.015625 -2.085938 1.882812 -2.140625 1.71875 -2.140625 C 1.5625 -2.140625 1.429688 -2.085938 1.328125 -1.984375 C 1.234375 -1.878906 1.1875 -1.726562 1.1875 -1.53125 L 1.1875 0 L 0.3125 0 L 0.3125 -2.828125 L 1.1875 -2.828125 L 1.1875 -2.453125 C 1.269531 -2.578125 1.382812 -2.675781 1.53125 -2.75 C 1.6875 -2.820312 1.859375 -2.859375 2.046875 -2.859375 Z M 2.046875 -2.859375 "/></g></g></g><g clip-path="url(#157539910e)"><path fill="#ffffff" d="M 20.066406 1.136719 L 3.125 9.15625 C 1.75 9.824219 0.867188 11.21875 0.867188 12.765625 L 0.890625 33.363281 C 0.890625 34.886719 1.769531 36.308594 3.167969 36.953125 L 20.085938 44.992188 C 21.160156 45.507812 22.429688 45.507812 23.503906 44.992188 L 40.445312 36.953125 C 41.839844 36.285156 42.722656 34.886719 42.722656 33.339844 L 42.722656 12.746094 C 42.722656 11.199219 41.839844 9.800781 40.445312 9.15625 L 23.484375 1.136719 C 22.40625 0.621094 21.160156 0.621094 20.066406 1.136719 Z M 20.066406 1.136719 " fill-opacity="1" fill-rule="nonzero"/></g><g clip-path="url(#7e11c857ba)"><path fill="#373435" d="M 21.785156 45.957031 C 21.117188 45.957031 20.453125 45.808594 19.828125 45.507812 L 2.910156 37.46875 C 1.339844 36.714844 0.308594 35.101562 0.308594 33.363281 L 0.289062 12.765625 C 0.289062 11.003906 1.296875 9.390625 2.886719 8.640625 L 19.828125 0.621094 C 21.074219 0.0429688 22.492188 0.0429688 23.742188 0.621094 L 40.679688 8.660156 C 42.269531 9.414062 43.28125 11.027344 43.28125 12.765625 L 43.28125 33.363281 C 43.28125 35.101562 42.25 36.738281 40.679688 37.488281 L 23.742188 45.527344 C 23.117188 45.808594 22.449219 45.957031 21.785156 45.957031 Z M 20.324219 1.652344 L 3.382812 9.671875 C 2.199219 10.230469 1.425781 11.457031 1.425781 12.765625 L 1.449219 33.363281 C 1.449219 34.671875 2.222656 35.875 3.40625 36.4375 L 20.324219 44.476562 C 21.246094 44.925781 22.320312 44.925781 23.246094 44.476562 L 40.1875 36.4375 C 41.367188 35.875 42.140625 34.671875 42.140625 33.363281 L 42.140625 12.765625 C 42.140625 11.457031 41.367188 10.253906 40.1875 9.695312 L 23.246094 1.652344 C 22.320312 1.203125 21.246094 1.203125 20.324219 1.652344 Z M 20.324219 1.652344 " fill-opacity="1" fill-rule="nonzero"/></g><path fill="#2180a5" d="M 7.710938 26.203125 L 15.695312 22.488281 C 15.640625 22.308594 15.613281 22.117188 15.613281 21.917969 C 15.613281 21.4375 15.777344 21 16.050781 20.648438 L 11.554688 16.207031 C 11.257812 16.375 10.914062 16.472656 10.546875 16.472656 C 10.214844 16.472656 9.902344 16.390625 9.625 16.25 L 6.417969 25.503906 C 6.933594 25.570312 7.390625 25.828125 7.714844 26.199219 Z M 7.710938 26.203125 " fill-opacity="1" fill-rule="evenodd"/><path fill="#0495c1" d="M 15.929688 23.011719 L 8.027344 26.6875 C 8.148438 26.953125 8.214844 27.246094 8.214844 27.554688 C 8.214844 27.785156 8.179688 28.003906 8.109375 28.214844 L 18.167969 31.613281 C 18.328125 31.085938 18.695312 30.644531 19.171875 30.394531 L 17.839844 23.972656 C 17.785156 23.980469 17.726562 23.980469 17.671875 23.980469 C 16.9375 23.980469 16.292969 23.59375 15.929688 23.007812 Z M 15.929688 23.011719 " fill-opacity="1" fill-rule="evenodd"/><g clip-path="url(#d444ae491d)"><path fill="#2180a5" d="M 18.074219 32.1875 L 7.851562 28.734375 C 7.625 29.058594 7.308594 29.316406 6.9375 29.46875 L 8.875 32.472656 L 16.113281 35.417969 L 16.347656 35.515625 L 16.28125 35.757812 L 15.457031 38.851562 L 18.21875 38.90625 L 19.261719 34.089844 C 18.5625 33.757812 18.074219 33.042969 18.074219 32.214844 Z M 18.074219 32.1875 " fill-opacity="1" fill-rule="evenodd"/></g><path fill="#2180a5" d="M 18.394531 23.847656 L 19.714844 30.195312 C 19.847656 30.167969 19.988281 30.152344 20.132812 30.152344 C 21.265625 30.152344 22.1875 31.078125 22.1875 32.21875 L 22.1875 32.238281 L 26.886719 32.28125 L 29.003906 29.554688 C 28.714844 29.199219 28.539062 28.742188 28.539062 28.246094 C 28.539062 28.078125 28.558594 27.917969 28.59375 27.769531 L 19.382812 23.058594 C 19.144531 23.414062 18.800781 23.695312 18.394531 23.847656 Z M 18.394531 23.847656 " fill-opacity="1" fill-rule="evenodd"/><path fill="#53c5d6" d="M 19.628906 22.539062 L 28.804688 27.230469 C 28.96875 26.9375 29.203125 26.691406 29.484375 26.507812 L 27.15625 18.632812 C 26.191406 18.464844 25.460938 17.617188 25.460938 16.597656 C 25.460938 16.003906 25.710938 15.46875 26.109375 15.089844 L 25.171875 11.90625 C 25.035156 11.9375 24.894531 11.953125 24.746094 11.953125 C 24.429688 11.953125 24.128906 11.878906 23.855469 11.746094 L 18.933594 20.292969 C 19.414062 20.667969 19.722656 21.257812 19.722656 21.917969 C 19.722656 22.136719 19.691406 22.347656 19.628906 22.542969 Z M 19.628906 22.539062 " fill-opacity="1" fill-rule="evenodd"/><path fill="#0495c1" d="M 18.441406 20 L 23.382812 11.425781 C 23.109375 11.179688 22.902344 10.863281 22.789062 10.507812 L 12.503906 13.78125 C 12.566406 13.976562 12.597656 14.1875 12.597656 14.40625 C 12.597656 14.96875 12.375 15.480469 12.007812 15.855469 L 16.453125 20.246094 C 16.792969 20 17.214844 19.851562 17.667969 19.851562 C 17.941406 19.851562 18.203125 19.902344 18.441406 20 Z M 18.441406 20 " fill-opacity="1" fill-rule="evenodd"/><path fill="#53c5d6" d="M 27.515625 14.53125 C 28.519531 14.53125 29.359375 15.253906 29.539062 16.214844 L 36.539062 16.882812 C 36.550781 16.746094 36.578125 16.613281 36.617188 16.484375 L 26.550781 10.882812 C 26.355469 11.230469 26.066406 11.519531 25.710938 11.707031 L 26.605469 14.742188 C 26.882812 14.605469 27.191406 14.527344 27.515625 14.527344 Z M 27.515625 14.53125 " fill-opacity="1" fill-rule="evenodd"/><path fill="#53c5d6" d="M 36.566406 17.464844 L 29.5625 16.792969 C 29.515625 17.28125 29.304688 17.71875 28.980469 18.046875 L 36.40625 25.433594 C 36.777344 25.058594 37.292969 24.824219 37.863281 24.824219 C 37.914062 24.824219 37.960938 24.824219 38.011719 24.828125 L 38.417969 19.140625 C 37.488281 19.066406 36.734375 18.367188 36.566406 17.464844 Z M 36.566406 17.464844 " fill-opacity="1" fill-rule="evenodd"/><path fill="#0fa5cd" d="M 36.058594 25.902344 L 28.519531 18.402344 C 28.289062 18.527344 28.035156 18.617188 27.761719 18.648438 L 30.011719 26.265625 C 30.199219 26.210938 30.394531 26.179688 30.597656 26.179688 C 31.582031 26.179688 32.40625 26.875 32.609375 27.804688 L 35.894531 27.46875 C 35.839844 27.285156 35.808594 27.089844 35.808594 26.886719 C 35.808594 26.527344 35.902344 26.191406 36.0625 25.898438 Z M 36.058594 25.902344 " fill-opacity="1" fill-rule="evenodd"/><g clip-path="url(#698c0e4be8)"><path fill="#373435" d="M 7.828125 32.238281 L 5.730469 28.992188 C 5.667969 28.996094 5.605469 29 5.539062 29 C 4.40625 29 3.484375 28.074219 3.484375 26.933594 C 3.484375 25.914062 4.21875 25.066406 5.1875 24.898438 L 8.519531 15.289062 C 8.117188 14.914062 7.871094 14.378906 7.871094 13.785156 C 7.871094 12.644531 8.792969 11.71875 9.925781 11.71875 C 10.640625 11.71875 11.269531 12.082031 11.636719 12.636719 L 22.078125 9.308594 C 22.078125 9.292969 22.078125 9.273438 22.078125 9.261719 C 22.078125 8.121094 23 7.195312 24.136719 7.195312 C 25.269531 7.195312 26.191406 8.121094 26.191406 9.261719 C 26.191406 9.417969 26.175781 9.570312 26.144531 9.71875 L 36.242188 15.34375 C 36.609375 14.769531 37.246094 14.394531 37.972656 14.394531 C 39.109375 14.394531 40.03125 15.320312 40.03125 16.460938 C 40.03125 17.460938 39.320312 18.292969 38.382812 18.484375 L 37.960938 24.332031 C 38.746094 24.621094 39.304688 25.378906 39.304688 26.269531 C 39.304688 27.410156 38.382812 28.335938 37.25 28.335938 C 36.53125 28.335938 35.894531 27.964844 35.53125 27.398438 L 32.03125 27.757812 C 31.964844 28.835938 31.070312 29.6875 29.980469 29.6875 C 29.546875 29.6875 29.140625 29.550781 28.8125 29.320312 L 26.632812 32.121094 L 26.546875 32.234375 L 26.40625 32.234375 L 21.484375 32.1875 C 21.230469 33.039062 20.445312 33.664062 19.515625 33.664062 C 19.40625 33.664062 19.300781 33.65625 19.191406 33.640625 L 18.109375 38.636719 L 18.058594 38.867188 L 17.820312 38.863281 L 14.460938 38.796875 L 14.09375 38.792969 L 14.1875 38.4375 L 15.042969 35.238281 L 7.957031 32.351562 L 7.824219 32.242188 Z M 11.390625 15.234375 L 15.839844 19.628906 C 16.179688 19.378906 16.597656 19.230469 17.054688 19.230469 C 17.328125 19.230469 17.589844 19.28125 17.828125 19.382812 L 22.769531 10.804688 C 22.496094 10.558594 22.289062 10.242188 22.175781 9.886719 L 11.890625 13.160156 C 11.949219 13.355469 11.984375 13.566406 11.984375 13.785156 C 11.984375 14.347656 11.757812 14.859375 11.390625 15.234375 Z M 25.933594 10.261719 C 25.738281 10.609375 25.449219 10.898438 25.09375 11.085938 L 25.988281 14.121094 C 26.265625 13.984375 26.574219 13.90625 26.898438 13.90625 C 28.035156 13.90625 28.957031 14.832031 28.957031 15.972656 C 28.957031 17.03125 28.164062 17.902344 27.140625 18.023438 L 29.394531 25.640625 C 29.578125 25.585938 29.773438 25.554688 29.976562 25.554688 C 30.960938 25.554688 31.785156 26.25 31.988281 27.179688 L 35.273438 26.84375 C 35.21875 26.660156 35.191406 26.464844 35.191406 26.261719 C 35.191406 25.121094 36.113281 24.195312 37.246094 24.195312 C 37.296875 24.195312 37.34375 24.199219 37.394531 24.203125 L 37.800781 18.515625 C 36.746094 18.429688 35.914062 17.539062 35.914062 16.457031 C 35.914062 16.25 35.945312 16.054688 36 15.863281 L 25.933594 10.257812 Z M 28.386719 28.933594 C 28.097656 28.574219 27.921875 28.117188 27.921875 27.621094 C 27.921875 27.457031 27.941406 27.296875 27.976562 27.144531 L 18.765625 22.4375 C 18.527344 22.792969 18.183594 23.070312 17.777344 23.226562 L 19.09375 29.574219 C 19.230469 29.542969 19.371094 29.527344 19.515625 29.527344 C 20.648438 29.527344 21.570312 30.453125 21.570312 31.59375 L 21.570312 31.613281 L 26.269531 31.65625 Z M 18.644531 33.46875 C 17.945312 33.140625 17.460938 32.421875 17.460938 31.59375 C 17.460938 31.585938 17.460938 31.574219 17.460938 31.566406 L 7.234375 28.109375 C 7.011719 28.4375 6.695312 28.695312 6.320312 28.847656 L 8.261719 31.847656 L 15.5 34.796875 L 15.734375 34.890625 L 15.667969 35.132812 L 14.839844 38.226562 L 17.601562 38.28125 L 18.644531 33.464844 Z M 5.800781 24.886719 C 6.3125 24.949219 6.769531 25.207031 7.09375 25.578125 L 15.078125 21.867188 C 15.023438 21.683594 14.996094 21.492188 14.996094 21.292969 C 14.996094 20.816406 15.160156 20.375 15.433594 20.023438 L 10.9375 15.582031 C 10.640625 15.753906 10.296875 15.847656 9.929688 15.847656 C 9.597656 15.847656 9.285156 15.769531 9.007812 15.628906 L 5.800781 24.882812 Z M 17.550781 30.992188 C 17.710938 30.464844 18.074219 30.023438 18.554688 29.773438 L 17.222656 23.351562 C 17.167969 23.359375 17.109375 23.359375 17.054688 23.359375 C 16.316406 23.359375 15.675781 22.972656 15.308594 22.386719 L 7.410156 26.0625 C 7.53125 26.328125 7.597656 26.621094 7.597656 26.929688 C 7.597656 27.164062 7.558594 27.382812 7.492188 27.589844 L 17.550781 30.988281 Z M 26.542969 18.007812 C 25.578125 17.835938 24.84375 16.992188 24.84375 15.972656 C 24.84375 15.378906 25.097656 14.839844 25.496094 14.464844 L 24.554688 11.28125 C 24.421875 11.3125 24.277344 11.328125 24.132812 11.328125 C 23.8125 11.328125 23.511719 11.253906 23.242188 11.121094 L 18.320312 19.664062 C 18.800781 20.042969 19.105469 20.628906 19.105469 21.292969 C 19.105469 21.507812 19.074219 21.71875 19.011719 21.917969 L 28.1875 26.605469 C 28.351562 26.3125 28.585938 26.066406 28.867188 25.886719 L 26.539062 18.007812 Z M 26.542969 18.007812 " fill-opacity="1" fill-rule="nonzero"/></g><path fill="#373435" d="M 37.285156 27.113281 L 25.929688 15.816406 L 26.15625 15.328125 L 38.238281 16.484375 L 38.1875 17.054688 L 26.898438 15.976562 L 37.6875 26.707031 Z M 37.285156 27.113281 " fill-opacity="1" fill-rule="nonzero"/></svg>